<svg height='25px' width='25px'  fill="#000000" xmlns="http://www.w3.org/2000/svg" xmlns:xlink="http://www.w3.org/1999/xlink" version="1.1" x="0px" y="0px" viewBox="0 0 60 60" style="enable-background:new 0 0 60 60;" xml:space="preserve"><path d="M54,24.4278564c0-0.4342041-0.2805176-0.7946167-0.6672363-0.9328003L47.9375,19.3903809v-7.7340088  c0-0.5522461-0.4477539-1-1-1H36.4575195l-5.8520508-4.4521484c-0.3574219-0.2724609-0.8535156-0.2724609-1.2109375,0  l-5.8527832,4.4521484H13.0625c-0.5522461,0-1,0.4477539-1,1v7.7333984l-5.3959351,4.1054077  C6.2801514,23.6335449,6,23.9938965,6,24.4278564v26.6982422c0,1.5849609,1.359375,2.8740234,3.0297852,2.8740234h41.9399414  C52.640625,54.0001221,54,52.7110596,54,51.1260986V24.4278564z M47.9375,21.9033813l3.3183594,2.5244751L47.9375,26.9524536  V21.9033813z M30,8.2564697l3.1543579,2.3999023h-6.3091431L30,8.2564697z M14.0625,12.6563721h22.0448608  c0.005127,0.000061,0.0100708,0.0024414,0.0151978,0.0024414c0.0036621,0,0.007019-0.0023804,0.0106812-0.0024414H45.9375v15.817688  L30,40.5992432l-15.9375-12.124939V12.6563721z M12.0625,21.902832v5.0499268l-3.3188477-2.5249023L12.0625,21.902832z   M8,51.0527344V26.374939l16.218689,12.3388672L8,51.0527344z M10.0579834,52.0001221l15.8123779-12.0297852l3.5241699,2.6811523  C29.5732422,42.7877197,29.7866211,42.8555908,30,42.8555908s0.4267578-0.0678711,0.6054688-0.2041016l3.5239258-2.6809692  l15.8126221,12.0296021H10.0579834z M52,51.0527344L35.7810059,38.7139282L52,26.3746338V51.0527344z"></path></svg>