<svg height='25px' width='25px'  fill="#000000" xmlns="http://www.w3.org/2000/svg" viewBox="0 0 64 64" x="0px" y="0px"><title>Icon-12</title><path d="M48.3,49.35l-.21-.15c-.76-.52-4.2-2.75-6.47-4.23l-1.87-1.22A4.84,4.84,0,0,0,33.2,45l-.26.33c-.82,1-1.67,2.1-3,2.17-1.91.13-4.68-1.63-8.22-5.18S16.41,36,16.52,34.08c.07-1.35,1.14-2.2,2.17-3L19,30.8a4.84,4.84,0,0,0,1.23-6.55l-1.2-1.85c-1.49-2.28-3.73-5.73-4.26-6.49l-.14-.21c-.71-1.06-2-3-4.76-2.65A12.48,12.48,0,0,0,1,24.85C1,31.68,6,40.6,14.7,49.3S32.32,63,39.15,63A12.48,12.48,0,0,0,51,54.11C51.34,51.39,49.36,50.06,48.3,49.35ZM49,53.83A10.45,10.45,0,0,1,39.15,61c-6.31,0-14.7-4.78-23-13.11S3,31.16,3,24.85A10.44,10.44,0,0,1,10.17,15l.4,0c1.11,0,1.72.76,2.42,1.82l.15.22c.51.74,2.75,4.18,4.23,6.46l1.21,1.84a2.87,2.87,0,0,1-.82,3.9l-.31.26c-1.18.93-2.8,2.22-2.93,4.46-.15,2.58,1.68,5.68,5.76,9.76s7.17,5.9,9.76,5.76c2.24-.13,3.53-1.75,4.47-2.93l.25-.31a2.87,2.87,0,0,1,3.9-.82l1.87,1.22c2.26,1.48,5.69,3.71,6.43,4.21h0l.23.15C48.35,51.79,49.17,52.46,49,53.83Z"></path><path d="M59.42,1H30.58A3.59,3.59,0,0,0,27,4.58V23.42A3.59,3.59,0,0,0,30.58,27H37v8.41L45.41,27h14A3.59,3.59,0,0,0,63,23.42V4.58A3.59,3.59,0,0,0,59.42,1ZM61,23.42A1.58,1.58,0,0,1,59.42,25H44.59L39,30.59V25H30.58A1.58,1.58,0,0,1,29,23.42V4.58A1.58,1.58,0,0,1,30.58,3H59.42A1.58,1.58,0,0,1,61,4.58Z"></path><circle cx="45" cy="14" r="2"></circle><circle cx="37" cy="14" r="2"></circle><circle cx="53" cy="14" r="2"></circle></svg>